# xmcd
#
# Track frame offsets: 
#        150
#        17108
#        36124
#        59861
#        77388
#        94350
#        114054
#        136229
#        161027
#        183285
#
# Disc length: 2728 seconds
#
# Revision: 1
# Processed by: cddbd v1.5.2PL0 Copyright (c) Steve Scherf et al.
# Submitted via: ExactAudioCopyFreeDBPlugin 1.0
#
DISCID=7b0aa60a
DTITLE=Anita Cochran - Serenity
DYEAR=2009
DGENRE=Country
TTITLE0=Dying To Live Again
TTITLE1=Better For You
TTITLE2=Walkin' Man (the life of Henry Cornwell)
TTITLE3=(I Wanna Hear) A Cheatin' Song
TTITLE4=Asking Too Much
TTITLE5=Serenity
TTITLE6=Common Ground
TTITLE7=Nobody Takes The Train
TTITLE8=What If I Said (solo version)
TTITLE9=Picture You In Heaven
EXTD=
EXTT0=
EXTT1=
EXTT2=
EXTT3=
EXTT4=
EXTT5=
EXTT6=
EXTT7=
EXTT8=
EXTT9=
PLAYORDER=
